<?xml version="1.0" encoding="iso-8859-1"?>
<!-- Uploaded to: SVG Repo, www.svgrepo.com, Generator: SVG Repo Mixer Tools -->
<svg xmlns="http://www.w3.org/2000/svg" xmlns:xlink="http://www.w3.org/1999/xlink" version="1.1" id="Layer_1"  viewBox="0 0 432.578 432.578" xml:space="preserve" width="512" height="512">
<g>
	<path style="fill:#985F35;" d="M84.748,262.522C38.018,262.522,0,224.504,0,177.775c0-8.285,6.717-15,15-15c8.285,0,15,6.715,15,15   c0,30.188,24.561,54.746,54.748,54.746c8.283,0,15,6.717,15,15C99.748,255.807,93.031,262.522,84.748,262.522z"/>
	<g>
		<path style="fill:#77BC1F;" d="M397.328,217.197c0.447-3.248,0.697-6.559,0.697-9.93c0-39.793-32.258-72.049-72.049-72.049    c-8.014,0-15.711,1.328-22.912,3.742c-12.588-10.756-28.912-17.266-46.768-17.266c-28.029,0-52.303,16.018-64.215,39.387    c-4.08-0.848-8.307-1.295-12.639-1.295c-23.551,0-44.027,13.152-54.492,32.51c-21.65,1.576-38.727,19.623-38.727,41.674    c0,11.09,4.326,21.162,11.373,28.645c-9.127,7.666-14.932,19.158-14.932,32.01c0,23.084,18.713,41.797,41.797,41.797h245.326    c34.676,0,62.789-28.111,62.789-62.789C432.578,248.836,418.199,227.402,397.328,217.197z"/>
		<path style="opacity:0.3;fill:#218649;" d="M256.297,121.695c-28.029,0-52.303,16.018-64.215,39.387    c-4.08-0.848-8.307-1.295-12.639-1.295c-23.551,0-44.027,13.152-54.492,32.51c-21.65,1.576-38.727,19.623-38.727,41.674    c0,11.09,4.326,21.162,11.373,28.645c-9.127,7.666-14.932,19.158-14.932,32.01c0,23.084,18.713,41.797,41.797,41.797h132.373    V121.709C256.654,121.707,256.477,121.695,256.297,121.695z"/>
	</g>
	<g>
		<path style="fill:#985F35;" d="M327.279,248.559v-66.574H66.834v66.574c0,33.445-22.047,65.313-43.764,87.863h347.971    C349.324,313.871,327.279,282.004,327.279,248.559z"/>
		<path style="opacity:0.2;fill:#222222;" d="M66.834,181.984v66.574c0,33.445-22.047,65.313-43.764,87.863h173.986V181.984H66.834z    "/>
	</g>
	<g>
		<path style="fill:#00953A;" d="M367.26,177.16c19.596-19.6,17.742-53.227,17.742-53.227s-33.631-1.855-53.227,17.74    c-19.598,19.598-17.744,53.229-17.744,53.229S347.66,196.758,367.26,177.16z"/>
		<path style="opacity:0.2;fill:#222222;" d="M314.031,194.902c0,0,33.629,1.855,53.228-17.742    c19.596-19.6,17.742-53.227,17.742-53.227L314.031,194.902z"/>
	</g>
	<g>
		<path style="fill:#00953A;" d="M278.268,146.34c0-27.717,25.09-50.184,25.09-50.184s25.092,22.467,25.092,50.182    c0,27.715-25.092,50.184-25.092,50.184S278.268,174.055,278.268,146.34z"/>
		<path style="opacity:0.2;fill:#222222;" d="M303.358,196.521c0,0-25.09-22.467-25.09-50.182c0-27.717,25.09-50.184,25.09-50.184    V196.521z"/>
	</g>
	<g style="opacity:0.2;">
		<path style="fill:#222222;" d="M116.789,243.848c-4.143,0-7.5-3.357-7.5-7.5v-26.842c0-4.143,3.357-7.5,7.5-7.5s7.5,3.357,7.5,7.5    v26.842C124.289,240.49,120.932,243.848,116.789,243.848z"/>
		<path style="fill:#222222;" d="M177.789,313.176c-4.143,0-7.5-3.357-7.5-7.5V277.83c0-4.143,3.357-7.5,7.5-7.5    c4.143,0,7.5,3.357,7.5,7.5v27.846C185.289,309.818,181.932,313.176,177.789,313.176z"/>
		<path style="fill:#222222;" d="M269.789,236.559c-4.143,0-7.5-3.357-7.5-7.5v-19.553c0-4.143,3.357-7.5,7.5-7.5    c4.143,0,7.5,3.357,7.5,7.5v19.553C277.289,233.201,273.932,236.559,269.789,236.559z"/>
		<path style="fill:#222222;" d="M233.447,281.852c-4.143,0-7.5-3.357-7.5-7.5V247.17c0-4.143,3.357-7.5,7.5-7.5    c4.143,0,7.5,3.357,7.5,7.5v27.182C240.947,278.494,237.59,281.852,233.447,281.852z"/>
	</g>
	<g>
		<path style="fill:#00953A;" d="M67.617,164.082c19.596-19.6,17.742-53.229,17.742-53.229S51.729,109,32.133,128.596    c-19.598,19.598-17.744,53.229-17.744,53.229S48.018,183.678,67.617,164.082z"/>
		<path style="opacity:0.2;fill:#222222;" d="M14.389,181.824c0,0,33.629,1.854,53.229-17.742    c19.596-19.6,17.742-53.229,17.742-53.229L14.389,181.824z"/>
	</g>
</g>















</svg>