<?xml version="1.0" encoding="iso-8859-1"?>
<!-- Uploaded to: SVG Repo, www.svgrepo.com, Generator: SVG Repo Mixer Tools -->
<svg height="800px" width="800px" version="1.1" id="Layer_1" xmlns="http://www.w3.org/2000/svg" xmlns:xlink="http://www.w3.org/1999/xlink" 
	 viewBox="0 0 503.467 503.467" xml:space="preserve">
<g transform="translate(1 13)">
	<path style="fill:#FFD0A1;" d="M276.333,298.505c0,75.093-61.44,136.533-136.533,136.533c-75.093,0-136.533-61.44-136.533-136.533
		S64.707,161.972,139.8,161.972c43.52,0,81.92,19.627,106.667,51.2C265.24,236.212,276.333,266.079,276.333,298.505"/>
	<path style="fill:#AE938D;" d="M259.267,161.972H139.8c43.52,0,81.92,19.627,106.667,51.2
		c18.773,23.04,29.867,52.907,29.867,85.333c0,75.093-61.44,136.533-136.533,136.533h221.867
		c75.093,0,136.533-61.44,136.533-136.533s-61.44-136.533-136.533-136.533h-11.093H259.267h91.307L242.2,42.505l-34.133,25.6
		L259.267,161.972L259.267,161.972z"/>
</g>
<path style="fill:#51565F;" d="M362.667,452.305h-128c-2.56,0-4.267-1.707-4.267-4.267c0-2.56,1.707-4.267,4.267-4.267h128
	c38.4,0,73.387-16.213,97.28-42.667h-46.08c-2.56,0-4.267-1.707-4.267-4.267c0-2.56,1.707-4.267,4.267-4.267h52.907
	c16.213-21.333,26.453-47.787,28.16-76.8h-29.867c-2.56,0-4.267-1.707-4.267-4.267s1.707-4.267,4.267-4.267h29.867
	c-2.56-70.827-60.587-128-132.267-128H294.4c-2.56,0-4.267-1.707-4.267-4.267s1.707-4.267,4.267-4.267h68.267
	c77.653,0,140.8,63.147,140.8,140.8S440.32,452.305,362.667,452.305z M140.8,452.305c-77.653,0-140.8-63.147-140.8-140.8
	s63.147-140.8,140.8-140.8h112.64l-47.787-87.893c-0.853-1.707-0.853-4.267,0.853-5.12l34.133-25.6
	c1.707-1.707,4.267-0.853,5.973,0.853l76.8,85.333c1.707,1.707,1.707,4.267,0,5.973s-4.267,1.707-5.973,0L243.2,61.479
	l-28.16,21.333l49.493,90.453c0.853,1.707,0.853,2.56,0,4.267c-0.853,1.707-2.56,1.707-3.413,1.707H141.653
	c-72.533,0-132.267,59.733-132.267,132.267S69.12,443.772,141.653,443.772S273.92,384.039,273.92,311.505
	c0-30.72-10.24-58.88-29.013-81.92l-0.853-0.853c-5.973-7.68-12.8-14.507-20.48-20.48c-1.707-1.707-2.56-4.267-0.853-5.973
	c1.707-1.707,4.267-1.707,5.973-0.853c7.68,5.973,14.507,12.8,20.48,20.48h62.293c2.56,0,4.267,1.707,4.267,4.267
	c0,2.56-1.707,4.267-4.267,4.267H256c16.213,23.04,25.6,51.2,25.6,81.067c0,10.24-0.853,20.48-3.413,29.867h50.347
	c2.56,0,4.267,1.707,4.267,4.267s-1.707,4.267-4.267,4.267h-51.2h-0.853C259.413,408.785,204.8,452.305,140.8,452.305z
	 M311.467,418.172h-34.133c-2.56,0-4.267-1.707-4.267-4.267c0-2.56,1.707-4.267,4.267-4.267h34.133c2.56,0,4.267,1.707,4.267,4.267
	C315.733,416.465,314.027,418.172,311.467,418.172z M140.8,401.105c-14.507,0-29.013-3.413-41.813-10.24
	c-1.707-0.853-2.56-3.413-1.707-5.973c0.853-1.707,3.413-2.56,5.973-1.707c11.947,5.973,24.747,9.387,37.547,9.387
	c2.56,0,4.267,1.707,4.267,4.267C145.067,399.398,143.36,401.105,140.8,401.105z M171.52,395.132c-1.707,0-3.413-0.853-4.267-2.56
	c-0.853-2.56,0-4.267,2.56-5.12c30.72-11.947,52.053-42.667,52.053-75.947c0-2.56,1.707-4.267,4.267-4.267
	c2.56,0,4.267,1.707,4.267,4.267c0,36.693-23.04,70.827-57.173,83.627C172.373,395.132,171.52,395.132,171.52,395.132z
	 M72.533,366.972c-1.707,0-2.56-0.853-3.413-1.707c-11.947-15.36-17.92-34.133-17.92-53.76c0-23.893,9.387-46.08,25.6-63.147
	c1.707-1.707,4.267-1.707,5.973,0c1.707,1.707,1.707,4.267,0,5.973c-15.36,15.36-23.893,35.84-23.893,57.173
	c0,17.92,5.973,34.133,16.213,48.64c1.707,1.707,0.853,4.267-0.853,5.973C74.24,366.972,73.387,366.972,72.533,366.972z
	 M140.8,349.905c-9.387,0-18.773-3.413-25.6-9.387c-1.707-1.707-1.707-4.267,0-5.973c1.707-1.707,4.267-1.707,5.973,0
	c11.093,9.387,29.013,9.387,39.253,0c1.707-1.707,4.267-1.707,5.973,0c1.707,1.707,1.707,4.267,0,5.973
	C159.573,346.492,150.187,349.905,140.8,349.905z M430.933,315.772h-17.067c-2.56,0-4.267-1.707-4.267-4.267
	s1.707-4.267,4.267-4.267h17.067c2.56,0,4.267,1.707,4.267,4.267S433.493,315.772,430.933,315.772z M174.933,315.772
	c-2.56,0-4.267-1.707-4.267-4.267c0-16.213-13.653-29.867-29.867-29.867c-2.56,0-4.267-1.707-4.267-4.267s1.707-4.267,4.267-4.267
	c21.333,0,38.4,17.067,38.4,38.4C179.2,314.065,177.493,315.772,174.933,315.772z M106.667,315.772c-2.56,0-4.267-1.707-4.267-4.267
	c0-9.387,3.413-18.773,9.387-25.6c1.707-1.707,4.267-1.707,5.973,0c1.707,1.707,1.707,4.267,0,5.973
	c-5.12,5.12-7.68,12.8-7.68,19.627C110.933,314.065,109.227,315.772,106.667,315.772z M222.72,290.172
	c-1.707,0-3.413-0.853-4.267-3.413c-6.827-22.187-23.04-40.96-45.227-50.347c-2.56-0.853-3.413-3.413-2.56-5.973
	c0.853-2.56,3.413-3.413,5.973-2.56c23.893,10.24,41.813,30.72,49.493,55.467c0.853,2.56-0.853,4.267-2.56,5.12
	C222.72,290.172,222.72,290.172,222.72,290.172z M328.533,281.638h-17.067c-2.56,0-4.267-1.707-4.267-4.267s1.707-4.267,4.267-4.267
	h17.067c2.56,0,4.267,1.707,4.267,4.267S331.093,281.638,328.533,281.638z M430.933,247.505h-51.2c-2.56,0-4.267-1.707-4.267-4.267
	c0-2.56,1.707-4.267,4.267-4.267h51.2c2.56,0,4.267,1.707,4.267,4.267C435.2,245.798,433.493,247.505,430.933,247.505z
	 M115.2,233.852c-1.707,0-3.413-0.853-4.267-3.413c-0.853-2.56,0.853-4.267,2.56-5.12c8.533-2.56,17.92-4.267,26.453-4.267
	c2.56,0,4.267,1.707,4.267,4.267s-1.707,4.267-4.267,4.267c-8.533,0-16.213,0.853-23.893,3.413
	C116.053,233.852,116.053,233.852,115.2,233.852z"/>
</svg>